# xmcd
#
# Track frame offsets:
#       182
#       35400
#       48550
#       87300
#       105637
#       161050
#       174125
#       196675
#
# Disc length: 2808 seconds
#
# Revision: 0
# Processed by: cddbd v1.5.1PL0 Copyright (c) Steve Scherf et al.
# Submitted via: WhereIsIt 3.50
#
DISCID=5b0af608
DTITLE=Eric Clapton - Golden age
DYEAR=1992
DGENRE=Blues
TTITLE0=Stormy monday
TTITLE1=Strange brew
TTITLE2=Blues power
TTITLE3=Politician
TTITLE4=Tell the truth
TTITLE5=I feel free
TTITLE6=Derek's boogie
TTITLE7=Born under a bad sign
EXTD=
EXTT0=
EXTT1=
EXTT2=
EXTT3=
EXTT4=
EXTT5=
EXTT6=
EXTT7=
PLAYORDER=
